<?xml version="1.0"?>
<svg class="icon icon-linkedin" xmlns="http://www.w3.org/2000/svg" width="144" height="144" viewBox="0 0 144 144">
  <path class="background" fill="#fff" d="M 10.625,0 C 4.7611628,0 0,4.647 0,10.375 l 0,123.25 C 0,139.359 4.7611628,144 10.625,144 l 122.71875,0 C 139.21759,144 144,139.36 144,133.625 l 0,-123.25 C 144.00001,4.647 139.21759,0 133.34375,0 L 10.625,0 z m 21.40625,19.8125 c 6.828,0 12.375,5.57525 12.375,12.40625 0,6.837 -5.547,12.375 -12.375,12.375 -6.846,0 -12.375,-5.538 -12.375,-12.375 0.001,-6.83 5.53,-12.40625 12.375,-12.40625 z m 65.0625,32.46875 c 21.62801,0 25.625,14.21675 25.625,32.71875 l 0,37.71875 -21.34375,0 0,-33.4375 c 0,-7.969 -0.17199,-18.21875 -11.125,-18.21875 -11.113,0 -12.8125,8.69325 -12.8125,17.65625 l 0,34 -21.34375,0 0,-68.71875 20.5,0 0,9.375 0.28125,0 C 79.727,57.972 86.70275,52.28125 97.09375,52.28125 z M 21.34375,54 l 21.375,0 0,68.71875 -21.375,0 0,-68.71875 z"/>
 </svg>
